<svg width="169" height="195" viewBox="0 0 169 195" fill="none" xmlns="http://www.w3.org/2000/svg">
<g clip-path="url(#clip0_2386_3420)">
<rect x="43.4609" y="0.302734" width="129.023" height="166.139" rx="8.83719" transform="rotate(15 43.4609 0.302734)" fill="#161C28"/>
<circle cx="8.19393" cy="145.016" r="69.8138" transform="rotate(15 8.19393 145.016)" fill="#232937"/>
<circle cx="179.788" cy="41.7892" r="69.8138" transform="rotate(15 179.788 41.7892)" fill="#232937"/>
<circle opacity="0.5" cx="74.7796" cy="30.4847" r="12.3721" transform="rotate(15 74.7796 30.4847)" fill="white"/>
<circle opacity="0.5" cx="60.5765" cy="26.68" r="12.3721" transform="rotate(15 60.5765 26.68)" fill="white"/>
<path d="M41.6653 68.7274L40.7632 68.4857C40.7793 68.2119 40.7471 67.9589 40.6663 67.7268C40.588 67.4953 40.4721 67.2875 40.3187 67.1034C40.1684 66.9176 39.9883 66.7602 39.7786 66.6312C39.5688 66.5022 39.3403 66.4046 39.0929 66.3383C38.6419 66.2174 38.2027 66.2219 37.7754 66.3518C37.3506 66.4822 36.9708 66.7405 36.6361 67.1264C36.3038 67.513 36.0512 68.0288 35.8784 68.6739C35.7055 69.3189 35.6663 69.892 35.7608 70.3929C35.8578 70.8945 36.0575 71.308 36.3602 71.6335C36.6653 71.9595 37.0434 72.183 37.4944 72.3038C37.7418 72.3701 37.9885 72.3999 38.2347 72.393C38.4808 72.3862 38.7151 72.3411 38.9376 72.2578C39.1632 72.1727 39.3677 72.0494 39.5513 71.8881C39.738 71.725 39.8924 71.5221 40.0146 71.2793L40.9167 71.521C40.7468 71.8836 40.5318 72.1911 40.2718 72.4437C40.0118 72.6964 39.7201 72.8924 39.3969 73.0319C39.0742 73.169 38.7322 73.2476 38.3707 73.2677C38.0117 73.2885 37.6442 73.2485 37.2683 73.1478C36.633 72.9775 36.1095 72.6709 35.698 72.228C35.2865 71.785 35.0155 71.2394 34.8851 70.591C34.7547 69.9427 34.7948 69.2257 35.0054 68.44C35.2159 67.6543 35.5397 67.0133 35.9768 66.517C36.4138 66.0207 36.9213 65.6836 37.4992 65.5058C38.0771 65.328 38.6837 65.3242 39.319 65.4944C39.6949 65.5951 40.0331 65.7442 40.3337 65.9417C40.6367 66.1399 40.8933 66.3802 41.1035 66.6626C41.3144 66.9426 41.4693 67.257 41.5681 67.6058C41.6677 67.9522 41.7 68.326 41.6653 68.7274ZM41.6343 74.2084L43.1314 68.6212L43.9607 68.8434L43.7346 69.6873L43.7928 69.7029C43.9687 69.4538 44.2131 69.2788 44.526 69.1781C44.8389 69.0774 45.1627 69.0719 45.4973 69.1616C45.5604 69.1785 45.6389 69.2008 45.7328 69.2286C45.8267 69.2563 45.8973 69.2792 45.9445 69.297L45.7106 70.17C45.6834 70.1549 45.6197 70.1262 45.5193 70.0837C45.422 70.0394 45.3163 70.002 45.2024 69.9715C44.9308 69.8987 44.673 69.8907 44.429 69.9475C44.1882 70.0025 43.9793 70.1129 43.8023 70.2786C43.6284 70.4425 43.5077 70.6506 43.4401 70.9028L42.4927 74.4385L41.6343 74.2084ZM47.5868 75.9282C47.0485 75.7839 46.6159 75.5407 46.2892 75.1984C45.9655 74.8544 45.7557 74.4395 45.6597 73.9537C45.5668 73.4662 45.597 72.9362 45.7504 72.3639C45.9037 71.7916 46.1432 71.3152 46.4687 70.9346C46.7973 70.5522 47.1823 70.2889 47.6238 70.1446C48.0684 69.9987 48.5429 69.9932 49.0473 70.1284C49.3383 70.2064 49.6127 70.3319 49.8704 70.5049C50.1281 70.6779 50.3442 70.9047 50.5185 71.1854C50.6935 71.4636 50.8023 71.7994 50.845 72.193C50.8877 72.5865 50.8392 73.0439 50.6995 73.5653L50.6021 73.9291L46.2952 72.775L46.4941 72.033L49.9279 72.9531C50.0124 72.6378 50.0247 72.3396 49.9649 72.0585C49.9075 71.778 49.7827 71.5353 49.5907 71.3305C49.4011 71.1264 49.1511 70.9827 48.8407 70.8996C48.4987 70.8079 48.1802 70.8135 47.8849 70.9164C47.5927 71.0174 47.3439 71.1847 47.1384 71.4181C46.9329 71.6515 46.7888 71.9222 46.7063 72.2302L46.5738 72.7249C46.4607 73.1469 46.4376 73.5241 46.5045 73.8565C46.5744 74.1871 46.7199 74.4639 46.9409 74.6869C47.1625 74.9074 47.4467 75.0641 47.7935 75.157C48.019 75.2175 48.2311 75.2405 48.4299 75.2262C48.6317 75.2101 48.8166 75.1557 48.9844 75.0629C49.1529 74.9677 49.2995 74.8328 49.4242 74.6583L50.1912 75.1133C50.0285 75.3712 49.8155 75.5793 49.5522 75.7374C49.2895 75.8932 48.9907 75.9899 48.6558 76.0275C48.3214 76.0626 47.9651 76.0295 47.5868 75.9282ZM53.3159 77.4633C52.8503 77.3385 52.4708 77.1108 52.1774 76.78C51.8846 76.4469 51.6953 76.0375 51.6097 75.5519C51.5248 75.0639 51.5616 74.524 51.7201 73.9323C51.8774 73.3455 52.1144 72.8632 52.4314 72.4855C52.7483 72.1077 53.1178 71.8494 53.5397 71.7103C53.9616 71.5712 54.4078 71.5647 54.8783 71.6908C55.242 71.7883 55.5131 71.9259 55.6916 72.1037C55.8732 72.2797 55.9993 72.459 56.0699 72.6417C56.1436 72.8226 56.199 72.97 56.236 73.0839L56.3088 73.1034L57.0456 70.3534L57.9041 70.5834L55.9079 78.0331L55.0786 77.8108L55.3086 76.9524L55.2068 76.9251C55.1164 77.01 54.9923 77.1145 54.8343 77.2385C54.6769 77.3601 54.4741 77.4526 54.2258 77.5161C53.9781 77.577 53.6748 77.5595 53.3159 77.4633ZM53.639 76.7233C53.9833 76.8156 54.2984 76.8038 54.5841 76.6881C54.8705 76.5699 55.1184 76.3673 55.3278 76.0803C55.5379 75.7909 55.6995 75.4353 55.8126 75.0133C55.9243 74.5962 55.9615 74.215 55.9241 73.8697C55.8873 73.5219 55.7735 73.2289 55.5826 72.9907C55.3924 72.7499 55.1227 72.5828 54.7735 72.4892C54.4097 72.3918 54.0816 72.4039 53.7891 72.5257C53.4996 72.6456 53.2517 72.8482 53.0453 73.1334C52.842 73.4168 52.6877 73.755 52.5825 74.1478C52.4759 74.5455 52.4397 74.9231 52.4739 75.2805C52.5111 75.6362 52.6241 75.942 52.8129 76.1979C53.0047 76.452 53.2801 76.6272 53.639 76.7233ZM57.5994 78.4863L59.0965 72.899L59.9549 73.1291L58.4579 78.7163L57.5994 78.4863ZM59.7825 72.0848C59.6152 72.04 59.4862 71.9443 59.3955 71.7978C59.3072 71.652 59.2845 71.4991 59.3274 71.339C59.3702 71.179 59.4664 71.0579 59.6157 70.9758C59.7675 70.8943 59.9271 70.876 60.0944 70.9208C60.2617 70.9656 60.3895 71.0609 60.4778 71.2068C60.5685 71.3532 60.5924 71.5065 60.5496 71.6665C60.5067 71.8266 60.4093 71.9474 60.2575 72.0288C60.1082 72.111 59.9498 72.1296 59.7825 72.0848ZM63.9571 74.2014L63.7622 74.929L60.8667 74.1531L61.0617 73.4256L63.9571 74.2014ZM62.2643 72.3131L63.1227 72.5431L61.6958 77.8685C61.6308 78.111 61.6172 78.3023 61.6551 78.4424C61.696 78.5807 61.7667 78.6854 61.8672 78.7565C61.9708 78.8259 62.0856 78.8774 62.2117 78.9112C62.3063 78.9366 62.3852 78.9525 62.4484 78.9591C62.5123 78.9632 62.5634 78.9665 62.6017 78.9689L62.5697 79.7869C62.5056 79.7931 62.4186 79.7932 62.3084 79.7871C62.1977 79.7834 62.0622 79.7601 61.9022 79.7172C61.6597 79.6522 61.436 79.5364 61.2311 79.3697C61.0287 79.2037 60.8797 78.9936 60.7841 78.7392C60.6909 78.4855 60.6879 78.1962 60.775 77.8713L62.2643 72.3131ZM74.1157 77.4225L73.2136 77.1807C73.2297 76.907 73.1975 76.654 73.1167 76.4218C73.0384 76.1903 72.9225 75.9825 72.7691 75.7985C72.6188 75.6126 72.4387 75.4552 72.229 75.3262C72.0192 75.1973 71.7907 75.0996 71.5433 75.0334C71.0923 74.9125 70.6531 74.917 70.2258 75.0468C69.801 75.1773 69.4212 75.4355 69.0865 75.8215C68.7542 76.2081 68.5016 76.7239 68.3288 77.3689C68.1559 78.014 68.1167 78.587 68.2112 79.088C68.3081 79.5896 68.5079 80.0031 68.8106 80.3285C69.1157 80.6546 69.4938 80.878 69.9448 80.9989C70.1922 81.0652 70.4389 81.0949 70.6851 81.0881C70.9312 81.0813 71.1655 81.0362 71.388 80.9528C71.6135 80.8677 71.8181 80.7445 72.0017 80.5832C72.1884 80.42 72.3428 80.2171 72.465 79.9744L73.3671 80.2161C73.1972 80.5786 72.9822 80.8862 72.7222 81.1388C72.4622 81.3914 72.1705 81.5875 71.8473 81.727C71.5246 81.8641 71.1826 81.9426 70.8211 81.9628C70.4621 81.9835 70.0946 81.9435 69.7187 81.8428C69.0834 81.6726 68.5599 81.366 68.1484 80.923C67.7369 80.4801 67.4659 79.9344 67.3355 79.2861C67.2051 78.6378 67.2452 77.9207 67.4558 77.135C67.6663 76.3493 67.9901 75.7083 68.4272 75.212C68.8642 74.7158 69.3717 74.3787 69.9496 74.2009C70.5275 74.023 71.1341 74.0192 71.7694 74.1895C72.1453 74.2902 72.4835 74.4393 72.7841 74.6368C73.0871 74.8349 73.3437 75.0752 73.5539 75.3577C73.7648 75.6377 73.9197 75.9521 74.0185 76.3009C74.1181 76.6473 74.1504 77.0211 74.1157 77.4225ZM75.6937 83.475C75.3397 83.3801 75.0363 83.2274 74.7834 83.0167C74.5312 82.8035 74.3544 82.5469 74.2528 82.2468C74.152 81.9443 74.1503 81.6111 74.2477 81.2474C74.3335 80.9273 74.4661 80.6847 74.6455 80.5196C74.8255 80.3521 75.0363 80.2397 75.2778 80.1822C75.5193 80.1248 75.7748 80.1023 76.0444 80.1147C76.3171 80.1254 76.5877 80.1485 76.8562 80.1841C77.2074 80.2314 77.4915 80.2724 77.7083 80.3071C77.9282 80.3401 78.0941 80.3416 78.2061 80.3119C78.3204 80.2827 78.3961 80.199 78.4332 80.0608L78.441 80.0317C78.5371 79.6728 78.5136 79.3676 78.3705 79.1161C78.2298 78.8653 77.9618 78.6869 77.5665 78.581C77.1567 78.4712 76.8113 78.4748 76.5304 78.5919C76.2495 78.709 76.0345 78.8567 75.8854 79.0351L75.1485 78.5257C75.385 78.2252 75.6498 78.0129 75.943 77.8887C76.2393 77.7627 76.5418 77.7008 76.8505 77.703C77.1623 77.7034 77.4588 77.7412 77.7401 77.8166C77.9196 77.8647 78.1199 77.9418 78.341 78.0478C78.5651 78.152 78.7688 78.2989 78.952 78.4883C79.1376 78.6784 79.2677 78.9251 79.3424 79.2284C79.4171 79.5317 79.3949 79.9053 79.276 80.349L78.2897 84.0302L77.4312 83.8002L77.6339 83.0436L77.5903 83.0319C77.4996 83.1376 77.3678 83.2413 77.195 83.3431C77.0222 83.445 76.81 83.5142 76.5585 83.5508C76.3069 83.5873 76.0187 83.5621 75.6937 83.475ZM76.0313 82.7389C76.3708 82.8299 76.6749 82.8399 76.9434 82.7689C77.2144 82.6985 77.4375 82.5738 77.6129 82.3947C77.7907 82.2162 77.9107 82.0105 77.9731 81.7777L78.1836 80.992C78.1356 81.0259 78.0448 81.0445 77.9114 81.0477C77.7811 81.0492 77.6323 81.0418 77.4651 81.0256C77.301 81.0076 77.1411 80.9882 76.9856 80.9673C76.8331 80.9446 76.7092 80.927 76.6138 80.9145C76.3829 80.8838 76.1616 80.8752 75.9501 80.8887C75.7416 80.9004 75.5608 80.9546 75.4075 81.0513C75.2573 81.1462 75.153 81.3028 75.0945 81.521C75.0146 81.8193 75.0645 82.0744 75.2442 82.2863C75.427 82.4964 75.6894 82.6473 76.0313 82.7389ZM79.8565 84.4501L81.3536 78.8628L82.183 79.085L81.9569 79.929L82.0151 79.9445C82.191 79.6954 82.4354 79.5205 82.7483 79.4198C83.0612 79.3191 83.3849 79.3135 83.7196 79.4032C83.7826 79.4201 83.8611 79.4424 83.955 79.4702C84.049 79.498 84.1195 79.5208 84.1667 79.5386L83.9328 80.4116C83.9057 80.3966 83.8419 80.3678 83.7415 80.3253C83.6442 80.281 83.5386 80.2436 83.4246 80.2131C83.153 80.1403 82.8952 80.1323 82.6513 80.1891C82.4104 80.2441 82.2015 80.3545 82.0246 80.5202C81.8507 80.6841 81.7299 80.8922 81.6624 81.1444L80.715 84.6801L79.8565 84.4501ZM85.5763 86.1074C85.1107 85.9827 84.7311 85.7549 84.4377 85.4242C84.1449 85.091 83.9557 84.6816 83.8701 84.196C83.7851 83.708 83.8219 83.1682 83.9804 82.5765C84.1377 81.9896 84.3748 81.5073 84.6917 81.1296C85.0087 80.7519 85.3781 80.4935 85.8 80.3544C86.222 80.2154 86.6681 80.2089 87.1386 80.3349C87.5024 80.4324 87.7735 80.57 87.952 80.7478C88.1335 80.9238 88.2596 81.1031 88.3302 81.2858C88.4039 81.4667 88.4593 81.6141 88.4963 81.728L88.5691 81.7475L89.306 78.9975L90.1644 79.2275L88.1683 86.6772L87.3389 86.455L87.5689 85.5965L87.4671 85.5692C87.3768 85.6542 87.2526 85.7587 87.0946 85.8827C86.9373 86.0043 86.7344 86.0968 86.4861 86.1602C86.2385 86.2212 85.9352 86.2036 85.5763 86.1074ZM85.8993 85.3675C86.2437 85.4597 86.5587 85.448 86.8444 85.3322C87.1308 85.214 87.3787 85.0114 87.5882 84.7245C87.7983 84.4351 87.9599 84.0794 88.0729 83.6574C88.1847 83.2403 88.2218 82.8591 88.1844 82.5138C88.1476 82.1661 88.0338 81.8731 87.8429 81.6348C87.6527 81.3941 87.383 81.2269 87.0338 81.1334C86.6701 81.0359 86.3419 81.048 86.0494 81.1698C85.7599 81.2898 85.512 81.4923 85.3056 81.7775C85.1023 82.061 84.9481 82.3991 84.8428 82.7919C84.7362 83.1896 84.7 83.5672 84.7342 83.9247C84.7715 84.2803 84.8845 84.5861 85.0732 84.842C85.265 85.0961 85.5404 85.2713 85.8993 85.3675Z" fill="#E6E6E6"/>
<circle cx="31.5154" cy="85.8483" r="1.76744" transform="rotate(15 31.5154 85.8483)" fill="#D9D9D9"/>
<circle cx="40.906" cy="88.3639" r="1.76744" transform="rotate(15 40.906 88.3639)" fill="#D9D9D9"/>
<circle cx="50.2966" cy="90.8815" r="1.76744" transform="rotate(15 50.2966 90.8815)" fill="#D9D9D9"/>
<circle cx="59.6873" cy="93.3951" r="1.76744" transform="rotate(15 59.6873 93.3951)" fill="#D9D9D9"/>
<path d="M75.4075 92.659L73.4114 100.109L72.5093 99.867L74.252 93.363L74.2083 93.3514L72.066 94.0717L72.3116 93.155L74.5054 92.4173L75.4075 92.659ZM75.5539 100.683L75.7293 100.028L78.9095 97.9951C79.2826 97.7572 79.5937 97.5468 79.8428 97.3641C80.0925 97.1789 80.2899 96.9952 80.4348 96.8131C80.5829 96.6293 80.6874 96.4234 80.7485 96.1954C80.8187 95.9335 80.8164 95.6899 80.7416 95.4645C80.6693 95.2398 80.5392 95.0464 80.3513 94.8843C80.1634 94.7222 79.9349 94.6051 79.6657 94.5329C79.3795 94.4563 79.1138 94.4488 78.8686 94.5104C78.6264 94.5703 78.4189 94.6901 78.2459 94.8699C78.0754 95.0503 77.9522 95.2824 77.8761 95.5661L77.0177 95.3361C77.1346 94.8996 77.3379 94.5434 77.6276 94.2675C77.9172 93.9917 78.2601 93.808 78.6563 93.7167C79.0549 93.6259 79.4712 93.6387 79.9053 93.755C80.3418 93.872 80.7039 94.0678 80.9916 94.3424C81.2793 94.617 81.477 94.9364 81.5848 95.3006C81.6925 95.6647 81.6951 96.0384 81.5924 96.4215C81.519 96.6956 81.3975 96.9502 81.2279 97.1855C81.0613 97.419 80.8139 97.6633 80.4857 97.9184C80.1605 98.1717 79.7231 98.4704 79.1735 98.8144L77.0206 100.156L77.0051 100.214L80.468 101.142L80.2536 101.942L75.5539 100.683ZM84.2457 103.121C83.7656 102.992 83.3597 102.795 83.028 102.529C82.6987 102.265 82.463 101.956 82.321 101.603C82.182 101.249 82.1551 100.874 82.2403 100.478L83.157 100.724C83.1121 100.969 83.139 101.199 83.2377 101.412C83.337 101.623 83.4917 101.808 83.7016 101.965C83.9114 102.123 84.1595 102.24 84.4456 102.317C84.7657 102.403 85.0644 102.423 85.3416 102.377C85.6189 102.332 85.8545 102.229 86.0484 102.068C86.2423 101.907 86.3744 101.695 86.4446 101.433C86.518 101.159 86.5147 100.9 86.4348 100.655C86.3555 100.407 86.2009 100.189 85.9708 100C85.7408 99.8112 85.4366 99.666 85.0583 99.5647L84.4617 99.4048L84.6761 98.6046L85.2727 98.7644C85.5685 98.8437 85.8423 98.8599 86.094 98.8129C86.3481 98.7667 86.5642 98.6634 86.7423 98.5032C86.9228 98.3437 87.0482 98.1329 87.1183 97.871C87.1859 97.6188 87.1889 97.3844 87.1274 97.1678C87.0659 96.9512 86.9473 96.7634 86.7715 96.6046C86.5982 96.4464 86.3745 96.3306 86.1005 96.2571C85.8434 96.1883 85.5882 96.1706 85.3349 96.2041C85.0847 96.2358 84.8644 96.321 84.6739 96.4597C84.484 96.5959 84.3499 96.7861 84.2715 97.0302L83.3985 96.7963C83.5176 96.4098 83.7268 96.0994 84.0262 95.8651C84.3261 95.6283 84.6764 95.4753 85.0771 95.4059C85.4802 95.3372 85.8963 95.3603 86.3255 95.4753C86.7863 95.5988 87.1566 95.7981 87.4363 96.0732C87.7167 96.3458 87.9049 96.6575 88.0007 97.008C88.0965 97.3586 88.0973 97.7097 88.003 98.0613C87.8906 98.4808 87.6844 98.809 87.3845 99.0457C87.087 99.283 86.735 99.4084 86.3286 99.4216L86.313 99.4798C86.7626 99.6835 87.0764 99.982 87.2543 100.375C87.4329 100.766 87.4588 101.198 87.3321 101.671C87.2236 102.076 87.0158 102.41 86.7087 102.674C86.4047 102.935 86.0388 103.108 85.6111 103.19C85.1834 103.273 84.7283 103.25 84.2457 103.121ZM88.5127 102.518L88.7115 101.776L93.3732 97.4729L93.9116 97.6172L93.6036 98.7666L93.2399 98.6692L89.7176 101.92L89.702 101.979L94.1107 103.16L93.8962 103.96L88.5127 102.518ZM91.6099 104.985L92.0797 103.232L92.1723 102.886L93.6061 97.5353L94.4645 97.7653L92.4684 105.215L91.6099 104.985Z" fill="#F0F0EF"/>
<path d="M97.4918 159.73C96.9437 159.583 96.5169 159.309 96.2112 158.907C95.9062 158.503 95.7282 157.989 95.6772 157.365C95.6269 156.738 95.7102 156.019 95.9272 155.21C96.143 154.404 96.429 153.744 96.7854 153.229C97.1449 152.712 97.5577 152.355 98.0239 152.157C98.4931 151.958 98.9993 151.931 99.5425 152.077C100.086 152.222 100.509 152.498 100.814 152.905C101.121 153.309 101.3 153.825 101.351 154.452C101.404 155.077 101.323 155.792 101.107 156.597C100.89 157.407 100.603 158.071 100.246 158.589C99.8896 159.104 99.4783 159.461 99.0121 159.658C98.5466 159.853 98.0398 159.877 97.4918 159.73ZM97.7062 158.93C98.2494 159.075 98.7416 158.927 99.1826 158.483C99.6237 158.04 99.9742 157.334 100.234 156.364C100.407 155.718 100.485 155.151 100.468 154.66C100.454 154.17 100.35 153.772 100.157 153.466C99.9658 153.16 99.6909 152.959 99.332 152.862C98.7936 152.718 98.3017 152.871 97.8563 153.321C97.4115 153.768 97.0595 154.476 96.8002 155.443C96.6274 156.088 96.5484 156.655 96.5634 157.142C96.5783 157.63 96.6816 158.025 96.8732 158.329C97.0672 158.633 97.3449 158.833 97.7062 158.93ZM105.886 153.777C106.191 153.861 106.481 154.001 106.756 154.197C107.031 154.393 107.259 154.657 107.441 154.988C107.623 155.318 107.729 155.73 107.761 156.224C107.792 156.719 107.716 157.308 107.533 157.992C107.355 158.654 107.135 159.225 106.871 159.705C106.61 160.184 106.315 160.567 105.986 160.856C105.659 161.145 105.303 161.336 104.92 161.428C104.539 161.521 104.139 161.511 103.719 161.399C103.302 161.287 102.952 161.105 102.669 160.852C102.389 160.598 102.184 160.295 102.055 159.943C101.929 159.59 101.889 159.209 101.936 158.8L102.824 159.038C102.812 159.401 102.895 159.726 103.073 160.013C103.254 160.298 103.541 160.493 103.934 160.599C104.508 160.753 105.029 160.623 105.496 160.21C105.965 159.798 106.322 159.133 106.568 158.217L106.51 158.201C106.319 158.368 106.111 158.501 105.885 158.599C105.658 158.697 105.42 158.755 105.171 158.774C104.922 158.793 104.668 158.768 104.411 158.699C103.985 158.585 103.621 158.374 103.321 158.068C103.024 157.76 102.819 157.391 102.705 156.963C102.594 156.533 102.603 156.078 102.732 155.598C102.854 155.142 103.067 154.752 103.372 154.429C103.681 154.103 104.05 153.877 104.482 153.751C104.916 153.626 105.384 153.634 105.886 153.777ZM105.672 154.577C105.366 154.495 105.071 154.498 104.785 154.585C104.502 154.67 104.255 154.822 104.043 155.041C103.834 155.258 103.688 155.522 103.605 155.832C103.521 156.142 103.514 156.443 103.581 156.734C103.652 157.023 103.786 157.275 103.983 157.489C104.184 157.701 104.437 157.848 104.742 157.93C104.973 157.992 105.199 158.005 105.422 157.968C105.646 157.929 105.853 157.851 106.043 157.733C106.236 157.613 106.402 157.464 106.541 157.285C106.68 157.104 106.78 156.904 106.839 156.683C106.917 156.392 106.919 156.1 106.847 155.808C106.777 155.516 106.641 155.259 106.438 155.036C106.238 154.813 105.982 154.66 105.672 154.577ZM112.621 155.316L107.83 163.592L107.045 163.381L111.835 155.106L112.621 155.316ZM111.534 163.384L111.71 162.729L114.89 160.696C115.263 160.458 115.574 160.248 115.823 160.065C116.073 159.88 116.27 159.696 116.415 159.514C116.563 159.33 116.668 159.124 116.729 158.896C116.799 158.634 116.797 158.391 116.722 158.165C116.65 157.941 116.52 157.747 116.332 157.585C116.144 157.423 115.915 157.306 115.646 157.234C115.36 157.157 115.094 157.15 114.849 157.211C114.607 157.271 114.399 157.391 114.227 157.571C114.056 157.751 113.933 157.983 113.857 158.267L112.998 158.037C113.115 157.601 113.319 157.244 113.608 156.969C113.898 156.693 114.241 156.509 114.637 156.418C115.036 156.327 115.452 156.34 115.886 156.456C116.322 156.573 116.685 156.769 116.972 157.043C117.26 157.318 117.458 157.637 117.565 158.002C117.673 158.366 117.676 158.739 117.573 159.123C117.5 159.397 117.378 159.651 117.208 159.886C117.042 160.12 116.795 160.364 116.466 160.619C116.141 160.873 115.704 161.171 115.154 161.515L113.001 162.857L112.986 162.915L116.449 163.843L116.234 164.643L111.534 163.384ZM120.037 165.771C119.61 165.657 119.249 165.469 118.952 165.208C118.656 164.946 118.444 164.64 118.317 164.289C118.191 163.938 118.168 163.571 118.25 163.187L119.123 163.421C119.067 163.767 119.145 164.087 119.357 164.38C119.573 164.672 119.871 164.869 120.252 164.971C120.557 165.053 120.848 165.054 121.124 164.975C121.402 164.896 121.643 164.75 121.846 164.536C122.051 164.321 122.197 164.055 122.282 163.737C122.369 163.412 122.375 163.103 122.3 162.81C122.229 162.516 122.089 162.261 121.881 162.047C121.673 161.833 121.411 161.682 121.094 161.594C120.867 161.531 120.623 161.503 120.364 161.512C120.105 161.518 119.883 161.556 119.698 161.626L118.881 161.298L120.315 157.752L124.185 158.789L123.971 159.589L120.857 158.755L120.006 160.882L120.05 160.893C120.235 160.813 120.454 160.764 120.705 160.745C120.957 160.727 121.208 160.751 121.458 160.818C121.914 160.941 122.291 161.159 122.589 161.472C122.89 161.784 123.092 162.156 123.195 162.586C123.3 163.017 123.288 163.474 123.159 163.957C123.032 164.432 122.811 164.828 122.498 165.144C122.187 165.458 121.818 165.674 121.389 165.79C120.961 165.904 120.51 165.898 120.037 165.771Z" fill="#F8F8FA"/>
<rect opacity="0.2" x="19.2891" y="124.654" width="30.0464" height="19.4418" rx="3.53488" transform="rotate(15 19.2891 124.654)" fill="white"/>
</g>
<defs>
<clipPath id="clip0_2386_3420">
<rect x="43.4609" y="0.302734" width="129.023" height="166.139" rx="8.83719" transform="rotate(15 43.4609 0.302734)" fill="white"/>
</clipPath>
</defs>
</svg>
