<svg width="129" height="32" viewBox="0 0 129 32" fill="none" xmlns="http://www.w3.org/2000/svg">
<g clip-path="url(#clip0_2456_3452)">
<rect width="129" height="32" rx="4" fill="url(#paint0_linear_2456_3452)"/>
<path d="M26 18V20.6667C26 21.0203 25.8595 21.3594 25.6095 21.6095C25.3594 21.8595 25.0203 22 24.6667 22H15.3333C14.9797 22 14.6406 21.8595 14.3905 21.6095C14.1405 21.3594 14 21.0203 14 20.6667V18" stroke="white" stroke-width="2" stroke-linecap="round" stroke-linejoin="round"/>
<path d="M16.6641 14.667L19.9974 18.0003L23.3307 14.667" stroke="white" stroke-width="2" stroke-linecap="round" stroke-linejoin="round"/>
<path d="M20 18V10" stroke="white" stroke-width="2" stroke-linecap="round" stroke-linejoin="round"/>
<path d="M35.8182 20H32.8608V11.2727H35.8778C36.7443 11.2727 37.4886 11.4474 38.1108 11.7969C38.7358 12.1435 39.2159 12.642 39.5511 13.2926C39.8864 13.9432 40.054 14.7216 40.054 15.6278C40.054 16.5369 39.8849 17.3182 39.5469 17.9716C39.2116 18.625 38.7273 19.1264 38.0938 19.4759C37.4631 19.8253 36.7045 20 35.8182 20ZM34.4418 18.6321H35.7415C36.3494 18.6321 36.8565 18.5213 37.2628 18.2997C37.669 18.0753 37.9744 17.7415 38.179 17.2983C38.3835 16.8523 38.4858 16.2955 38.4858 15.6278C38.4858 14.9602 38.3835 14.4062 38.179 13.9659C37.9744 13.5227 37.6719 13.1918 37.2713 12.973C36.8736 12.7514 36.3793 12.6406 35.7884 12.6406H34.4418V18.6321ZM44.343 20.1278C43.7038 20.1278 43.1499 19.9872 42.6811 19.706C42.2124 19.4247 41.8487 19.0312 41.5902 18.5256C41.3345 18.0199 41.2067 17.429 41.2067 16.7528C41.2067 16.0767 41.3345 15.4844 41.5902 14.9759C41.8487 14.4673 42.2124 14.0724 42.6811 13.7912C43.1499 13.5099 43.7038 13.3693 44.343 13.3693C44.9822 13.3693 45.5362 13.5099 46.005 13.7912C46.4737 14.0724 46.8359 14.4673 47.0916 14.9759C47.3501 15.4844 47.4794 16.0767 47.4794 16.7528C47.4794 17.429 47.3501 18.0199 47.0916 18.5256C46.8359 19.0312 46.4737 19.4247 46.005 19.706C45.5362 19.9872 44.9822 20.1278 44.343 20.1278ZM44.3516 18.892C44.6982 18.892 44.9879 18.7969 45.2209 18.6065C45.4538 18.4134 45.6271 18.1548 45.7408 17.831C45.8572 17.5071 45.9155 17.1463 45.9155 16.7486C45.9155 16.348 45.8572 15.9858 45.7408 15.6619C45.6271 15.3352 45.4538 15.0753 45.2209 14.8821C44.9879 14.6889 44.6982 14.5923 44.3516 14.5923C43.9964 14.5923 43.701 14.6889 43.4652 14.8821C43.2322 15.0753 43.0575 15.3352 42.9411 15.6619C42.8274 15.9858 42.7706 16.348 42.7706 16.7486C42.7706 17.1463 42.8274 17.5071 42.9411 17.831C43.0575 18.1548 43.2322 18.4134 43.4652 18.6065C43.701 18.7969 43.9964 18.892 44.3516 18.892ZM49.9521 20L48.1026 13.4545H49.6751L50.8256 18.0568H50.8853L52.0614 13.4545H53.6168L54.793 18.0312H54.8569L55.9904 13.4545H57.5671L55.7134 20H54.1069L52.8796 15.5767H52.7901L51.5629 20H49.9521ZM60.1868 16.1648V20H58.6442V13.4545H60.1186V14.5668H60.1953C60.3459 14.2003 60.5859 13.9091 60.9155 13.6932C61.2479 13.4773 61.6584 13.3693 62.147 13.3693C62.5987 13.3693 62.9922 13.4659 63.3274 13.6591C63.6655 13.8523 63.9268 14.1321 64.1115 14.4986C64.299 14.8651 64.3913 15.3097 64.3885 15.8324V20H62.8459V16.071C62.8459 15.6335 62.7322 15.2912 62.505 15.044C62.2805 14.7969 61.9695 14.6733 61.5717 14.6733C61.3018 14.6733 61.0618 14.733 60.8516 14.8523C60.6442 14.9687 60.4808 15.1378 60.3615 15.3594C60.245 15.581 60.1868 15.8494 60.1868 16.1648ZM67.4993 11.2727V20H65.9567V11.2727H67.4993ZM71.9407 20.1278C71.3015 20.1278 70.7475 19.9872 70.2788 19.706C69.81 19.4247 69.4464 19.0312 69.1879 18.5256C68.9322 18.0199 68.8043 17.429 68.8043 16.7528C68.8043 16.0767 68.9322 15.4844 69.1879 14.9759C69.4464 14.4673 69.81 14.0724 70.2788 13.7912C70.7475 13.5099 71.3015 13.3693 71.9407 13.3693C72.5799 13.3693 73.1339 13.5099 73.6026 13.7912C74.0714 14.0724 74.4336 14.4673 74.6893 14.9759C74.9478 15.4844 75.0771 16.0767 75.0771 16.7528C75.0771 17.429 74.9478 18.0199 74.6893 18.5256C74.4336 19.0312 74.0714 19.4247 73.6026 19.706C73.1339 19.9872 72.5799 20.1278 71.9407 20.1278ZM71.9492 18.892C72.2958 18.892 72.5856 18.7969 72.8185 18.6065C73.0515 18.4134 73.2248 18.1548 73.3384 17.831C73.4549 17.5071 73.5131 17.1463 73.5131 16.7486C73.5131 16.348 73.4549 15.9858 73.3384 15.6619C73.2248 15.3352 73.0515 15.0753 72.8185 14.8821C72.5856 14.6889 72.2958 14.5923 71.9492 14.5923C71.5941 14.5923 71.2987 14.6889 71.0629 14.8821C70.8299 15.0753 70.6552 15.3352 70.5387 15.6619C70.4251 15.9858 70.3683 16.348 70.3683 16.7486C70.3683 17.1463 70.4251 17.5071 70.5387 17.831C70.6552 18.1548 70.8299 18.4134 71.0629 18.6065C71.2987 18.7969 71.5941 18.892 71.9492 18.892ZM78.2699 20.1321C77.8551 20.1321 77.4815 20.0582 77.1491 19.9105C76.8196 19.7599 76.5582 19.5384 76.3651 19.2457C76.1747 18.9531 76.0795 18.5923 76.0795 18.1634C76.0795 17.794 76.1477 17.4886 76.2841 17.2472C76.4205 17.0057 76.6065 16.8125 76.8423 16.6676C77.0781 16.5227 77.3438 16.4134 77.6392 16.3395C77.9375 16.2628 78.2457 16.2074 78.5639 16.1733C78.9474 16.1335 79.2585 16.098 79.4972 16.0668C79.7358 16.0327 79.9091 15.9815 80.017 15.9134C80.1278 15.8423 80.1832 15.733 80.1832 15.5852V15.5597C80.1832 15.2386 80.0881 14.9901 79.8977 14.8139C79.7074 14.6378 79.4332 14.5497 79.0753 14.5497C78.6974 14.5497 78.3977 14.6321 78.1761 14.7969C77.9574 14.9616 77.8097 15.1562 77.733 15.3807L76.2926 15.1761C76.4063 14.7784 76.5938 14.446 76.8551 14.179C77.1165 13.9091 77.4361 13.7074 77.8139 13.5739C78.1918 13.4375 78.6094 13.3693 79.0668 13.3693C79.3821 13.3693 79.696 13.4062 80.0085 13.4801C80.321 13.554 80.6065 13.6761 80.8651 13.8466C81.1236 14.0142 81.331 14.2429 81.4872 14.5327C81.6463 14.8224 81.7259 15.1847 81.7259 15.6193V20H80.2429V19.1009H80.1918C80.098 19.2827 79.9659 19.4531 79.7955 19.6122C79.6278 19.7685 79.4162 19.8949 79.1605 19.9915C78.9077 20.0852 78.6108 20.1321 78.2699 20.1321ZM78.6705 18.9986C78.9801 18.9986 79.2486 18.9375 79.4759 18.8153C79.7031 18.6903 79.8778 18.5256 80 18.321C80.125 18.1165 80.1875 17.8935 80.1875 17.652V16.8807C80.1392 16.9205 80.0568 16.9574 79.9403 16.9915C79.8267 17.0256 79.6989 17.0554 79.5568 17.081C79.4148 17.1065 79.2741 17.1293 79.1349 17.1491C78.9957 17.169 78.875 17.1861 78.7727 17.2003C78.5426 17.2315 78.3366 17.2827 78.1548 17.3537C77.973 17.4247 77.8295 17.5241 77.7244 17.652C77.6193 17.777 77.5668 17.9389 77.5668 18.1378C77.5668 18.4219 77.6705 18.6364 77.8778 18.7812C78.0852 18.9261 78.3494 18.9986 78.6705 18.9986ZM85.706 20.1151C85.1918 20.1151 84.7315 19.983 84.3253 19.7188C83.919 19.4545 83.598 19.071 83.3622 18.5682C83.1264 18.0653 83.0085 17.4545 83.0085 16.7358C83.0085 16.0085 83.1278 15.3949 83.3665 14.8949C83.608 14.392 83.9332 14.0128 84.3423 13.7571C84.7514 13.4986 85.2074 13.3693 85.7102 13.3693C86.0938 13.3693 86.4091 13.4347 86.6562 13.5653C86.9034 13.6932 87.0994 13.848 87.2443 14.0298C87.3892 14.2088 87.5014 14.3778 87.581 14.5369H87.6449V11.2727H89.1918V20H87.6747V18.9688H87.581C87.5014 19.1278 87.3864 19.2969 87.2358 19.4759C87.0852 19.652 86.8864 19.8026 86.6392 19.9276C86.392 20.0526 86.081 20.1151 85.706 20.1151ZM86.1364 18.8494C86.4631 18.8494 86.7415 18.7614 86.9716 18.5852C87.2017 18.4062 87.3764 18.1577 87.4957 17.8395C87.6151 17.5213 87.6747 17.1506 87.6747 16.7273C87.6747 16.304 87.6151 15.9361 87.4957 15.6236C87.3793 15.3111 87.206 15.0682 86.9759 14.8949C86.7486 14.7216 86.4688 14.6349 86.1364 14.6349C85.7926 14.6349 85.5057 14.7244 85.2756 14.9034C85.0455 15.0824 84.8722 15.3295 84.7557 15.6449C84.6392 15.9602 84.581 16.321 84.581 16.7273C84.581 17.1364 84.6392 17.5014 84.7557 17.8224C84.875 18.1406 85.0497 18.392 85.2798 18.5767C85.5128 18.7585 85.7983 18.8494 86.1364 18.8494ZM95.0011 20H93.3136L96.386 11.2727H98.3377L101.414 20H99.7269L97.396 13.0625H97.3278L95.0011 20ZM95.0565 16.5781H99.6587V17.848H95.0565V16.5781ZM102.496 22.4545V13.4545H104.013V14.5369H104.102C104.182 14.3778 104.294 14.2088 104.439 14.0298C104.584 13.848 104.78 13.6932 105.027 13.5653C105.274 13.4347 105.589 13.3693 105.973 13.3693C106.479 13.3693 106.935 13.4986 107.341 13.7571C107.75 14.0128 108.074 14.392 108.312 14.8949C108.554 15.3949 108.675 16.0085 108.675 16.7358C108.675 17.4545 108.557 18.0653 108.321 18.5682C108.085 19.071 107.764 19.4545 107.358 19.7188C106.952 19.983 106.491 20.1151 105.977 20.1151C105.602 20.1151 105.291 20.0526 105.044 19.9276C104.797 19.8026 104.598 19.652 104.447 19.4759C104.3 19.2969 104.185 19.1278 104.102 18.9688H104.038V22.4545H102.496ZM104.009 16.7273C104.009 17.1506 104.068 17.5213 104.188 17.8395C104.31 18.1577 104.484 18.4062 104.712 18.5852C104.942 18.7614 105.22 18.8494 105.547 18.8494C105.888 18.8494 106.173 18.7585 106.403 18.5767C106.634 18.392 106.807 18.1406 106.923 17.8224C107.043 17.5014 107.102 17.1364 107.102 16.7273C107.102 16.321 107.044 15.9602 106.928 15.6449C106.811 15.3295 106.638 15.0824 106.408 14.9034C106.178 14.7244 105.891 14.6349 105.547 14.6349C105.217 14.6349 104.938 14.7216 104.707 14.8949C104.477 15.0682 104.303 15.3111 104.183 15.6236C104.067 15.9361 104.009 16.304 104.009 16.7273ZM109.996 22.4545V13.4545H111.513V14.5369H111.602C111.682 14.3778 111.794 14.2088 111.939 14.0298C112.084 13.848 112.28 13.6932 112.527 13.5653C112.774 13.4347 113.089 13.3693 113.473 13.3693C113.979 13.3693 114.435 13.4986 114.841 13.7571C115.25 14.0128 115.574 14.392 115.812 14.8949C116.054 15.3949 116.175 16.0085 116.175 16.7358C116.175 17.4545 116.057 18.0653 115.821 18.5682C115.585 19.071 115.264 19.4545 114.858 19.7188C114.452 19.983 113.991 20.1151 113.477 20.1151C113.102 20.1151 112.791 20.0526 112.544 19.9276C112.297 19.8026 112.098 19.652 111.947 19.4759C111.8 19.2969 111.685 19.1278 111.602 18.9688H111.538V22.4545H109.996ZM111.509 16.7273C111.509 17.1506 111.568 17.5213 111.688 17.8395C111.81 18.1577 111.984 18.4062 112.212 18.5852C112.442 18.7614 112.72 18.8494 113.047 18.8494C113.388 18.8494 113.673 18.7585 113.903 18.5767C114.134 18.392 114.307 18.1406 114.423 17.8224C114.543 17.5014 114.602 17.1364 114.602 16.7273C114.602 16.321 114.544 15.9602 114.428 15.6449C114.311 15.3295 114.138 15.0824 113.908 14.9034C113.678 14.7244 113.391 14.6349 113.047 14.6349C112.717 14.6349 112.438 14.7216 112.207 14.8949C111.977 15.0682 111.803 15.3111 111.683 15.6236C111.567 15.9361 111.509 16.304 111.509 16.7273Z" fill="white"/>
</g>
<defs>
<linearGradient id="paint0_linear_2456_3452" x1="-0.00200892" y1="31.9998" x2="14.9537" y2="-28.2905" gradientUnits="userSpaceOnUse">
<stop stop-color="#0C4340"/>
<stop offset="1" stop-color="#06A77D"/>
</linearGradient>
<clipPath id="clip0_2456_3452">
<rect width="129" height="32" rx="4" fill="white"/>
</clipPath>
</defs>
</svg>
