<svg width="183" height="69" viewBox="0 0 183 69" fill="none" xmlns="http://www.w3.org/2000/svg">
<rect y="0.0234375" width="183" height="68" rx="8.83719" fill="white"/>
<path d="M17.0852 21.9062H16.1619L18.8324 14.6335H19.7415L22.4119 21.9062H21.4886L19.3153 15.7841H19.2585L17.0852 21.9062ZM17.4261 19.0653H21.1477V19.8466H17.4261V19.0653ZM23.6311 21.9062V16.4517H24.4408V17.304H24.5118C24.6254 17.0128 24.8089 16.7867 25.0622 16.6257C25.3155 16.4624 25.6197 16.3807 25.9749 16.3807C26.3347 16.3807 26.6342 16.4624 26.8733 16.6257C27.1148 16.7867 27.303 17.0128 27.4379 17.304H27.4947C27.6344 17.0223 27.8439 16.7985 28.1233 16.6328C28.4027 16.4647 28.7376 16.3807 29.1283 16.3807C29.616 16.3807 30.0149 16.5334 30.325 16.8388C30.6351 17.1418 30.7902 17.6141 30.7902 18.2557V21.9062H29.9521V18.2557C29.9521 17.8532 29.842 17.5656 29.6219 17.3928C29.4017 17.2199 29.1425 17.1335 28.8442 17.1335C28.4607 17.1335 28.1635 17.2495 27.9528 17.4815C27.7421 17.7112 27.6368 18.0024 27.6368 18.3551V21.9062H26.7845V18.1705C26.7845 17.8603 26.6839 17.6106 26.4827 17.4212C26.2814 17.2294 26.0222 17.1335 25.705 17.1335C25.4872 17.1335 25.2836 17.1915 25.0942 17.3075C24.9071 17.4235 24.7556 17.5845 24.6396 17.7905C24.526 17.9941 24.4692 18.2296 24.4692 18.4972V21.9062H23.6311ZM34.7384 22.0199C34.246 22.0199 33.8139 21.9027 33.4423 21.6683C33.0729 21.4339 32.7841 21.1061 32.5758 20.6847C32.3698 20.2633 32.2668 19.7708 32.2668 19.2074C32.2668 18.6392 32.3698 18.1432 32.5758 17.7195C32.7841 17.2957 33.0729 16.9666 33.4423 16.7322C33.8139 16.4979 34.246 16.3807 34.7384 16.3807C35.2308 16.3807 35.6617 16.4979 36.031 16.7322C36.4027 16.9666 36.6915 17.2957 36.8975 17.7195C37.1058 18.1432 37.21 18.6392 37.21 19.2074C37.21 19.7708 37.1058 20.2633 36.8975 20.6847C36.6915 21.1061 36.4027 21.4339 36.031 21.6683C35.6617 21.9027 35.2308 22.0199 34.7384 22.0199ZM34.7384 21.267C35.1125 21.267 35.4202 21.1712 35.6617 20.9794C35.9032 20.7876 36.0819 20.5355 36.1979 20.223C36.3139 19.9105 36.3719 19.572 36.3719 19.2074C36.3719 18.8428 36.3139 18.5031 36.1979 18.1882C36.0819 17.8733 35.9032 17.6188 35.6617 17.4247C35.4202 17.2306 35.1125 17.1335 34.7384 17.1335C34.3644 17.1335 34.0566 17.2306 33.8151 17.4247C33.5737 17.6188 33.3949 17.8733 33.2789 18.1882C33.1629 18.5031 33.1049 18.8428 33.1049 19.2074C33.1049 19.572 33.1629 19.9105 33.2789 20.223C33.3949 20.5355 33.5737 20.7876 33.8151 20.9794C34.0566 21.1712 34.3644 21.267 34.7384 21.267ZM42.1268 19.6761V16.4517H42.9649V21.9062H42.1268V20.983H42.07C41.9422 21.2599 41.7433 21.4955 41.4734 21.6896C41.2035 21.8814 40.8626 21.9773 40.4507 21.9773C40.1098 21.9773 39.8067 21.9027 39.5416 21.7536C39.2764 21.602 39.0681 21.3748 38.9166 21.0717C38.7651 20.7663 38.6893 20.3816 38.6893 19.9176V16.4517H39.5274V19.8608C39.5274 20.2585 39.6386 20.5758 39.8612 20.8125C40.0861 21.0492 40.3726 21.1676 40.7206 21.1676C40.9289 21.1676 41.1408 21.1143 41.3562 21.0078C41.574 20.9013 41.7563 20.7379 41.9031 20.5178C42.0522 20.2976 42.1268 20.017 42.1268 19.6761ZM45.5379 18.625V21.9062H44.6999V16.4517H45.5095V17.304H45.5805C45.7084 17.027 45.9025 16.8045 46.1629 16.6364C46.4233 16.4659 46.7595 16.3807 47.1714 16.3807C47.5408 16.3807 47.8639 16.4564 48.1409 16.608C48.4179 16.7571 48.6333 16.9844 48.7872 17.2898C48.9411 17.5928 49.018 17.9763 49.018 18.4403V21.9062H48.18V18.4972C48.18 18.0687 48.0687 17.7348 47.8462 17.4957C47.6236 17.2543 47.3182 17.1335 46.93 17.1335C46.6625 17.1335 46.4233 17.1915 46.2126 17.3075C46.0043 17.4235 45.8398 17.5928 45.719 17.8153C45.5983 18.0379 45.5379 18.3078 45.5379 18.625ZM53.1216 16.4517V17.1619H50.2949V16.4517H53.1216ZM51.1188 15.1449H51.9569V20.3438C51.9569 20.5805 51.9912 20.758 52.0598 20.8764C52.1309 20.9924 52.2208 21.0705 52.3297 21.1108C52.441 21.1487 52.5582 21.1676 52.6813 21.1676C52.7736 21.1676 52.8494 21.1629 52.9086 21.1534C52.9677 21.1416 53.0151 21.1321 53.0506 21.125L53.2211 21.8778C53.1642 21.8991 53.0849 21.9205 52.9831 21.9418C52.8813 21.9654 52.7523 21.9773 52.5961 21.9773C52.3593 21.9773 52.1273 21.9264 51.9 21.8246C51.6751 21.7228 51.4881 21.5677 51.339 21.3594C51.1922 21.151 51.1188 20.8883 51.1188 20.571V15.1449ZM58.5891 14.6335V21.9062H57.7084V14.6335H58.5891ZM61.2793 18.625V21.9062H60.4413V16.4517H61.2509V17.304H61.3219C61.4498 17.027 61.6439 16.8045 61.9043 16.6364C62.1647 16.4659 62.5009 16.3807 62.9129 16.3807C63.2822 16.3807 63.6053 16.4564 63.8823 16.608C64.1593 16.7571 64.3747 16.9844 64.5286 17.2898C64.6825 17.5928 64.7594 17.9763 64.7594 18.4403V21.9062H63.9214V18.4972C63.9214 18.0687 63.8101 17.7348 63.5876 17.4957C63.365 17.2543 63.0596 17.1335 62.6714 17.1335C62.4039 17.1335 62.1647 17.1915 61.954 17.3075C61.7457 17.4235 61.5812 17.5928 61.4604 17.8153C61.3397 18.0379 61.2793 18.3078 61.2793 18.625ZM70.7558 16.4517L68.7387 21.9062H67.8865L65.8694 16.4517H66.7785L68.2842 20.7983H68.341L69.8467 16.4517H70.7558ZM74.1536 22.0199C73.628 22.0199 73.1747 21.9039 72.7935 21.6719C72.4147 21.4375 72.1223 21.1108 71.9164 20.6918C71.7128 20.2704 71.611 19.7803 71.611 19.2216C71.611 18.6629 71.7128 18.1705 71.9164 17.7443C72.1223 17.3158 72.4088 16.982 72.7757 16.7429C73.1451 16.5014 73.5759 16.3807 74.0684 16.3807C74.3525 16.3807 74.633 16.428 74.91 16.5227C75.187 16.6174 75.4391 16.7713 75.6664 16.9844C75.8936 17.1951 76.0748 17.4744 76.2097 17.8224C76.3446 18.1705 76.4121 18.599 76.4121 19.108V19.4631H72.2076V18.7386H75.5598C75.5598 18.4309 75.4983 18.1562 75.3752 17.9148C75.2544 17.6733 75.0816 17.4827 74.8567 17.343C74.6342 17.2034 74.3714 17.1335 74.0684 17.1335C73.7346 17.1335 73.4457 17.2164 73.2019 17.3821C72.9604 17.5455 72.7746 17.7585 72.6444 18.0213C72.5141 18.2841 72.449 18.5658 72.449 18.8665V19.3494C72.449 19.7614 72.5201 20.1106 72.6621 20.397C72.8065 20.6811 73.0066 20.8977 73.2623 21.0469C73.5179 21.1937 73.815 21.267 74.1536 21.267C74.3738 21.267 74.5726 21.2363 74.7502 21.1747C74.9301 21.1108 75.0852 21.0161 75.2154 20.8906C75.3456 20.7628 75.4462 20.6042 75.5172 20.4148L76.3269 20.642C76.2417 20.9167 76.0984 21.1581 75.8972 21.3665C75.696 21.5724 75.4474 21.7334 75.1515 21.8494C74.8555 21.9631 74.5229 22.0199 74.1536 22.0199ZM81.7506 17.6733L80.9978 17.8864C80.9504 17.7609 80.8806 17.639 80.7882 17.5206C80.6983 17.3999 80.5752 17.3004 80.4189 17.2223C80.2627 17.1442 80.0626 17.1051 79.8188 17.1051C79.485 17.1051 79.2068 17.1821 78.9843 17.3359C78.7641 17.4875 78.654 17.6804 78.654 17.9148C78.654 18.1231 78.7298 18.2876 78.8813 18.4084C79.0328 18.5291 79.2695 18.6297 79.5915 18.7102L80.4012 18.9091C80.8889 19.0275 81.2523 19.2086 81.4914 19.4524C81.7305 19.6939 81.85 20.0052 81.85 20.3864C81.85 20.6989 81.7601 20.9782 81.5802 21.2244C81.4026 21.4706 81.154 21.6648 80.8344 21.8068C80.5148 21.9489 80.1431 22.0199 79.7194 22.0199C79.163 22.0199 78.7025 21.8991 78.338 21.6577C77.9734 21.4162 77.7426 21.0634 77.6455 20.5994L78.4409 20.4006C78.5167 20.6941 78.6599 20.9143 78.8706 21.0611C79.0837 21.2079 79.3619 21.2812 79.7052 21.2812C80.0958 21.2812 80.4059 21.1984 80.6355 21.0327C80.8676 20.8646 80.9836 20.6634 80.9836 20.429C80.9836 20.2396 80.9173 20.081 80.7847 19.9531C80.6521 19.8229 80.4485 19.7259 80.1739 19.6619L79.2648 19.4489C78.7653 19.3305 78.3983 19.147 78.164 18.8984C77.9319 18.6475 77.8159 18.3338 77.8159 17.9574C77.8159 17.6496 77.9024 17.3774 78.0752 17.1406C78.2504 16.9039 78.4883 16.718 78.789 16.5831C79.092 16.4482 79.4353 16.3807 79.8188 16.3807C80.3586 16.3807 80.7823 16.4991 81.0901 16.7358C81.4002 16.9725 81.6204 17.285 81.7506 17.6733ZM85.6837 16.4517V17.1619H82.857V16.4517H85.6837ZM83.6809 15.1449H84.519V20.3438C84.519 20.5805 84.5533 20.758 84.6219 20.8764C84.693 20.9924 84.7829 21.0705 84.8918 21.1108C85.0031 21.1487 85.1203 21.1676 85.2434 21.1676C85.3357 21.1676 85.4115 21.1629 85.4707 21.1534C85.5299 21.1416 85.5772 21.1321 85.6127 21.125L85.7832 21.8778C85.7264 21.8991 85.647 21.9205 85.5452 21.9418C85.4434 21.9654 85.3144 21.9773 85.1582 21.9773C84.9214 21.9773 84.6894 21.9264 84.4621 21.8246C84.2372 21.7228 84.0502 21.5677 83.9011 21.3594C83.7543 21.151 83.6809 20.8883 83.6809 20.571V15.1449ZM89.3727 22.0199C88.8472 22.0199 88.3938 21.9039 88.0126 21.6719C87.6339 21.4375 87.3415 21.1108 87.1355 20.6918C86.9319 20.2704 86.8301 19.7803 86.8301 19.2216C86.8301 18.6629 86.9319 18.1705 87.1355 17.7443C87.3415 17.3158 87.6279 16.982 87.9949 16.7429C88.3642 16.5014 88.7951 16.3807 89.2875 16.3807C89.5716 16.3807 89.8521 16.428 90.1291 16.5227C90.4061 16.6174 90.6582 16.7713 90.8855 16.9844C91.1128 17.1951 91.2939 17.4744 91.4288 17.8224C91.5638 18.1705 91.6312 18.599 91.6312 19.108V19.4631H87.4267V18.7386H90.779C90.779 18.4309 90.7174 18.1562 90.5943 17.9148C90.4736 17.6733 90.3008 17.4827 90.0759 17.343C89.8533 17.2034 89.5905 17.1335 89.2875 17.1335C88.9537 17.1335 88.6649 17.2164 88.421 17.3821C88.1795 17.5455 87.9937 17.7585 87.8635 18.0213C87.7333 18.2841 87.6682 18.5658 87.6682 18.8665V19.3494C87.6682 19.7614 87.7392 20.1106 87.8812 20.397C88.0257 20.6811 88.2257 20.8977 88.4814 21.0469C88.7371 21.1937 89.0342 21.267 89.3727 21.267C89.5929 21.267 89.7918 21.2363 89.9693 21.1747C90.1492 21.1108 90.3043 21.0161 90.4345 20.8906C90.5647 20.7628 90.6653 20.6042 90.7364 20.4148L91.546 20.642C91.4608 20.9167 91.3176 21.1581 91.1163 21.3665C90.9151 21.5724 90.6665 21.7334 90.3706 21.8494C90.0747 21.9631 89.742 22.0199 89.3727 22.0199ZM95.1658 22.0199C94.7112 22.0199 94.3099 21.9051 93.9619 21.6754C93.6139 21.4434 93.3417 21.1167 93.1452 20.6953C92.9487 20.2715 92.8504 19.7708 92.8504 19.1932C92.8504 18.6203 92.9487 18.1231 93.1452 17.7017C93.3417 17.2803 93.6151 16.9548 93.9655 16.7251C94.3159 16.4955 94.7207 16.3807 95.18 16.3807C95.5351 16.3807 95.8156 16.4399 96.0216 16.5582C96.2299 16.6742 96.3885 16.8068 96.4974 16.956C96.6087 17.1027 96.6951 17.2235 96.7567 17.3182H96.8277V14.6335H97.6658V21.9062H96.8561V21.0682H96.7567C96.6951 21.1676 96.6075 21.2931 96.4939 21.4446C96.3803 21.5937 96.2181 21.7275 96.0074 21.8459C95.7967 21.9619 95.5161 22.0199 95.1658 22.0199ZM95.2794 21.267C95.6156 21.267 95.8997 21.1795 96.1317 21.0043C96.3637 20.8267 96.5401 20.5817 96.6608 20.2692C96.7815 19.9543 96.8419 19.5909 96.8419 19.179C96.8419 18.7718 96.7827 18.4155 96.6643 18.1101C96.546 17.8023 96.3708 17.5632 96.1388 17.3928C95.9068 17.2199 95.6203 17.1335 95.2794 17.1335C94.9243 17.1335 94.6284 17.2247 94.3916 17.407C94.1572 17.5869 93.9809 17.8319 93.8625 18.142C93.7465 18.4498 93.6885 18.7955 93.6885 19.179C93.6885 19.5672 93.7477 19.92 93.8661 20.2372C93.9868 20.5521 94.1643 20.803 94.3987 20.9901C94.6355 21.1747 94.929 21.267 95.2794 21.267Z" fill="#A9A7B6"/>
<path d="M23.2773 41.0699L22.9258 42.3102H16.3431L16.6946 41.0699H23.2773ZM20.0738 48.8828L16.4787 44.5195L16.4686 43.5403H18.2511C18.6963 43.5403 19.0729 43.4717 19.3809 43.3345C19.6888 43.1972 19.9232 42.998 20.0838 42.7369C20.2445 42.4725 20.3248 42.1512 20.3248 41.7729C20.3248 41.2105 20.1575 40.7636 19.8227 40.4323C19.488 40.1009 18.9641 39.9352 18.2511 39.9352H16.3431L16.7096 38.5995H18.2511C19.0813 38.5995 19.7658 38.7318 20.3048 38.9962C20.8437 39.2607 21.2454 39.6272 21.5098 40.0958C21.7743 40.5645 21.9065 41.1051 21.9065 41.7177C21.9065 42.2633 21.7977 42.757 21.5801 43.1989C21.3625 43.6408 21.0161 44.0006 20.5408 44.2784C20.0654 44.5563 19.4411 44.7186 18.6679 44.7655L18.6227 44.7755L21.9065 48.7975V48.8828H20.0738ZM23.2823 38.5995L22.9258 39.8498L17.6636 39.8197L18.0201 38.5995H23.2823ZM28.5846 38.5995V48.8828H27.0281V40.1561H26.9678L24.5074 41.7629V40.2766L27.0732 38.5995H28.5846ZM34.9464 49.0535C34.153 49.0502 33.4752 48.841 32.9128 48.4259C32.3504 48.0108 31.9203 47.4066 31.6224 46.6133C31.3245 45.8199 31.1755 44.8642 31.1755 43.7462C31.1755 42.6315 31.3245 41.6792 31.6224 40.8892C31.9237 40.0992 32.3555 39.4966 32.9178 39.0816C33.4836 38.6665 34.1597 38.4589 34.9464 38.4589C35.733 38.4589 36.4075 38.6682 36.9699 39.0866C37.5323 39.5017 37.9624 40.1042 38.2603 40.8942C38.5616 41.6808 38.7122 42.6315 38.7122 43.7462C38.7122 44.8676 38.5633 45.8249 38.2653 46.6183C37.9674 47.4083 37.5373 48.0125 36.9749 48.4309C36.4125 48.846 35.7364 49.0535 34.9464 49.0535ZM34.9464 47.7129C35.6426 47.7129 36.1866 47.3731 36.5782 46.6936C36.9732 46.0141 37.1707 45.0316 37.1707 43.7462C37.1707 42.8926 37.0804 42.1712 36.8996 41.5821C36.7222 40.9896 36.4661 40.541 36.1314 40.2364C35.8 39.9285 35.405 39.7745 34.9464 39.7745C34.2535 39.7745 33.7095 40.1159 33.3145 40.7988C32.9195 41.4817 32.7203 42.4641 32.717 43.7462C32.717 44.6031 32.8057 45.3279 32.9831 45.9203C33.1639 46.5095 33.42 46.9564 33.7513 47.261C34.0827 47.5623 34.4811 47.7129 34.9464 47.7129ZM42.094 47.4769L42.0186 48.0242C41.9684 48.4259 41.8831 48.8443 41.7626 49.2795C41.6454 49.718 41.5232 50.1247 41.396 50.4996C41.2722 50.8745 41.1701 51.1724 41.0897 51.3934H40.0252C40.0688 51.1858 40.129 50.9047 40.206 50.5498C40.283 50.1983 40.3583 49.805 40.432 49.3699C40.5056 48.9347 40.5608 48.4912 40.5977 48.0393L40.6479 47.4769H42.094ZM47.4013 49.0535C46.6079 49.0502 45.9301 48.841 45.3677 48.4259C44.8054 48.0108 44.3752 47.4066 44.0773 46.6133C43.7794 45.8199 43.6304 44.8642 43.6304 43.7462C43.6304 42.6315 43.7794 41.6792 44.0773 40.8892C44.3786 40.0992 44.8104 39.4966 45.3727 39.0816C45.9385 38.6665 46.6146 38.4589 47.4013 38.4589C48.1879 38.4589 48.8624 38.6682 49.4248 39.0866C49.9872 39.5017 50.4173 40.1042 50.7152 40.8942C51.0165 41.6808 51.1671 42.6315 51.1671 43.7462C51.1671 44.8676 51.0182 45.8249 50.7203 46.6183C50.4223 47.4083 49.9922 48.0125 49.4298 48.4309C48.8675 48.846 48.1913 49.0535 47.4013 49.0535ZM47.4013 47.7129C48.0975 47.7129 48.6415 47.3731 49.0332 46.6936C49.4281 46.0141 49.6256 45.0316 49.6256 43.7462C49.6256 42.8926 49.5353 42.1712 49.3545 41.5821C49.1771 40.9896 48.921 40.541 48.5863 40.2364C48.2549 39.9285 47.8599 39.7745 47.4013 39.7745C46.7084 39.7745 46.1644 40.1159 45.7694 40.7988C45.3744 41.4817 45.1753 42.4641 45.1719 43.7462C45.1719 44.6031 45.2606 45.3279 45.438 45.9203C45.6188 46.5095 45.8749 46.9564 46.2063 47.261C46.5377 47.5623 46.936 47.7129 47.4013 47.7129ZM56.5284 49.0535C55.7351 49.0502 55.0573 48.841 54.4949 48.4259C53.9325 48.0108 53.5024 47.4066 53.2045 46.6133C52.9065 45.8199 52.7576 44.8642 52.7576 43.7462C52.7576 42.6315 52.9065 41.6792 53.2045 40.8892C53.5057 40.0992 53.9375 39.4966 54.4999 39.0816C55.0656 38.6665 55.7418 38.4589 56.5284 38.4589C57.3151 38.4589 57.9896 38.6682 58.552 39.0866C59.1143 39.5017 59.5445 40.1042 59.8424 40.8942C60.1437 41.6808 60.2943 42.6315 60.2943 43.7462C60.2943 44.8676 60.1453 45.8249 59.8474 46.6183C59.5495 47.4083 59.1193 48.0125 58.557 48.4309C57.9946 48.846 57.3184 49.0535 56.5284 49.0535ZM56.5284 47.7129C57.2247 47.7129 57.7687 47.3731 58.1603 46.6936C58.5553 46.0141 58.7528 45.0316 58.7528 43.7462C58.7528 42.8926 58.6624 42.1712 58.4817 41.5821C58.3043 40.9896 58.0482 40.541 57.7134 40.2364C57.382 39.9285 56.987 39.7745 56.5284 39.7745C55.8355 39.7745 55.2916 40.1159 54.8966 40.7988C54.5016 41.4817 54.3024 42.4641 54.2991 43.7462C54.2991 44.6031 54.3878 45.3279 54.5652 45.9203C54.7459 46.5095 55.002 46.9564 55.3334 47.261C55.6648 47.5623 56.0632 47.7129 56.5284 47.7129ZM65.6556 49.0535C64.8623 49.0502 64.1844 48.841 63.622 48.4259C63.0597 48.0108 62.6295 47.4066 62.3316 46.6133C62.0337 45.8199 61.8847 44.8642 61.8847 43.7462C61.8847 42.6315 62.0337 41.6792 62.3316 40.8892C62.6329 40.0992 63.0647 39.4966 63.6271 39.0816C64.1928 38.6665 64.869 38.4589 65.6556 38.4589C66.4422 38.4589 67.1168 38.6682 67.6791 39.0866C68.2415 39.5017 68.6716 40.1042 68.9696 40.8942C69.2708 41.6808 69.4215 42.6315 69.4215 43.7462C69.4215 44.8676 69.2725 45.8249 68.9746 46.6183C68.6767 47.4083 68.2465 48.0125 67.6841 48.4309C67.1218 48.846 66.4456 49.0535 65.6556 49.0535ZM65.6556 47.7129C66.3519 47.7129 66.8958 47.3731 67.2875 46.6936C67.6825 46.0141 67.88 45.0316 67.88 43.7462C67.88 42.8926 67.7896 42.1712 67.6088 41.5821C67.4314 40.9896 67.1753 40.541 66.8406 40.2364C66.5092 39.9285 66.1142 39.7745 65.6556 39.7745C64.9627 39.7745 64.4187 40.1159 64.0237 40.7988C63.6287 41.4817 63.4296 42.4641 63.4262 43.7462C63.4262 44.6031 63.5149 45.3279 63.6923 45.9203C63.8731 46.5095 64.1292 46.9564 64.4606 47.261C64.792 47.5623 65.1903 47.7129 65.6556 47.7129Z" fill="black"/>
<rect x="13" y="55.0234" width="158" height="1" fill="#EEEEEE"/>
</svg>
