<svg width="123" height="62" viewBox="0 0 123 62" fill="none" xmlns="http://www.w3.org/2000/svg">
<rect x="0.90625" y="0.0703125" width="121.953" height="61.8603" rx="8.83719" fill="white"/>
<path d="M19.7616 38.9547L19.4102 40.1949H12.8275L13.1789 38.9547H19.7616ZM16.5582 46.7676L12.963 42.4042L12.953 41.4251H14.7355C15.1807 41.4251 15.5573 41.3565 15.8652 41.2192C16.1732 41.082 16.4075 40.8828 16.5682 40.6217C16.7289 40.3573 16.8092 40.0359 16.8092 39.6577C16.8092 39.0953 16.6418 38.6484 16.3071 38.317C15.9724 37.9856 15.4485 37.8199 14.7355 37.8199H12.8275L13.194 36.4843H14.7355C15.5657 36.4843 16.2502 36.6165 16.7891 36.881C17.3281 37.1454 17.7298 37.512 17.9942 37.9806C18.2587 38.4492 18.3909 38.9898 18.3909 39.6024C18.3909 40.1481 18.2821 40.6418 18.0645 41.0837C17.8469 41.5255 17.5005 41.8854 17.0251 42.1632C16.5498 42.441 15.9255 42.6034 15.1522 42.6503L15.1071 42.6603L18.3909 46.6822V46.7676H16.5582ZM19.7667 36.4843L19.4102 37.7346L14.148 37.7044L14.5045 36.4843H19.7667ZM21.1676 46.7676V45.6428L24.6472 42.0377C25.0188 41.646 25.3251 41.3029 25.5661 41.0083C25.8104 40.7104 25.9929 40.4276 26.1134 40.1598C26.2339 39.892 26.2941 39.6074 26.2941 39.3062C26.2941 38.9647 26.2138 38.6702 26.0531 38.4225C25.8924 38.1714 25.6732 37.9789 25.3954 37.845C25.1175 37.7078 24.8045 37.6392 24.4564 37.6392C24.0882 37.6392 23.7668 37.7145 23.4923 37.8651C23.2179 38.0157 23.007 38.2283 22.8597 38.5028C22.7124 38.7773 22.6388 39.0986 22.6388 39.4669H21.1575C21.1575 38.8409 21.3015 38.2936 21.5893 37.8249C21.8772 37.3563 22.2722 36.9931 22.7743 36.7354C23.2764 36.4743 23.8472 36.3437 24.4865 36.3437C25.1326 36.3437 25.7016 36.4726 26.1937 36.7303C26.6891 36.9847 27.0758 37.3329 27.3536 37.7747C27.6314 38.2132 27.7703 38.7087 27.7703 39.261C27.7703 39.6426 27.6984 40.0158 27.5544 40.3807C27.4138 40.7456 27.1678 41.1523 26.8163 41.6008C26.4649 42.046 25.9761 42.5867 25.3502 43.2227L23.3066 45.3617V45.437H27.936V46.7676H21.1676ZM33.7405 36.4843V46.7676H32.1839V38.0409H32.1237L29.6633 39.6476V38.1614L32.2291 36.4843H33.7405ZM37.9017 45.3617L37.8264 45.909C37.7762 46.3107 37.6908 46.7291 37.5703 47.1642C37.4532 47.6028 37.331 48.0095 37.2038 48.3844C37.0799 48.7593 36.9778 49.0572 36.8975 49.2781H35.833C35.8765 49.0706 35.9368 48.7894 36.0138 48.4346C36.0908 48.0831 36.1661 47.6898 36.2397 47.2546C36.3134 46.8195 36.3686 46.3759 36.4054 45.924L36.4556 45.3617H37.9017ZM43.2091 46.9383C42.4157 46.9349 41.7379 46.7257 41.1755 46.3107C40.6131 45.8956 40.183 45.2914 39.8851 44.498C39.5872 43.7047 39.4382 42.749 39.4382 41.631C39.4382 40.5163 39.5872 39.5639 39.8851 38.7739C40.1863 37.9839 40.6182 37.3814 41.1805 36.9663C41.7462 36.5513 42.4224 36.3437 43.2091 36.3437C43.9957 36.3437 44.6702 36.5529 45.2326 36.9714C45.7949 37.3864 46.2251 37.989 46.523 38.779C46.8243 39.5656 46.9749 40.5163 46.9749 41.631C46.9749 42.7523 46.826 43.7097 46.528 44.503C46.2301 45.293 45.8 45.8972 45.2376 46.3157C44.6752 46.7308 43.9991 46.9383 43.2091 46.9383ZM43.2091 45.5977C43.9053 45.5977 44.4493 45.2579 44.8409 44.5784C45.2359 43.8988 45.4334 42.9164 45.4334 41.631C45.4334 40.7774 45.343 40.056 45.1623 39.4669C44.9849 38.8744 44.7288 38.4258 44.3941 38.1212C44.0627 37.8132 43.6677 37.6592 43.2091 37.6592C42.5161 37.6592 41.9722 38.0007 41.5772 38.6836C41.1822 39.3664 40.983 40.3489 40.9797 41.631C40.9797 42.4879 41.0684 43.2126 41.2458 43.8051C41.4266 44.3943 41.6826 44.8411 42.014 45.1458C42.3454 45.447 42.7438 45.5977 43.2091 45.5977ZM52.3362 46.9383C51.5429 46.9349 50.865 46.7257 50.3027 46.3107C49.7403 45.8956 49.3102 45.2914 49.0122 44.498C48.7143 43.7047 48.5654 42.749 48.5654 41.631C48.5654 40.5163 48.7143 39.5639 49.0122 38.7739C49.3135 37.9839 49.7453 37.3814 50.3077 36.9663C50.8734 36.5513 51.5496 36.3437 52.3362 36.3437C53.1229 36.3437 53.7974 36.5529 54.3597 36.9714C54.9221 37.3864 55.3522 37.989 55.6502 38.779C55.9514 39.5656 56.1021 40.5163 56.1021 41.631C56.1021 42.7523 55.9531 43.7097 55.6552 44.503C55.3573 45.293 54.9271 45.8972 54.3648 46.3157C53.8024 46.7308 53.1262 46.9383 52.3362 46.9383ZM52.3362 45.5977C53.0325 45.5977 53.5764 45.2579 53.9681 44.5784C54.3631 43.8988 54.5606 42.9164 54.5606 41.631C54.5606 40.7774 54.4702 40.056 54.2894 39.4669C54.112 38.8744 53.856 38.4258 53.5212 38.1212C53.1898 37.8132 52.7948 37.6592 52.3362 37.6592C51.6433 37.6592 51.0994 38.0007 50.7044 38.6836C50.3094 39.3664 50.1102 40.3489 50.1068 41.631C50.1068 42.4879 50.1955 43.2126 50.373 43.8051C50.5537 44.3943 50.8098 44.8411 51.1412 45.1458C51.4726 45.447 51.8709 45.5977 52.3362 45.5977ZM61.4634 46.9383C60.67 46.9349 59.9922 46.7257 59.4298 46.3107C58.8675 45.8956 58.4373 45.2914 58.1394 44.498C57.8415 43.7047 57.6925 42.749 57.6925 41.631C57.6925 40.5163 57.8415 39.5639 58.1394 38.7739C58.4407 37.9839 58.8725 37.3814 59.4348 36.9663C60.0006 36.5513 60.6767 36.3437 61.4634 36.3437C62.25 36.3437 62.9245 36.5529 63.4869 36.9714C64.0493 37.3864 64.4794 37.989 64.7773 38.779C65.0786 39.5656 65.2292 40.5163 65.2292 41.631C65.2292 42.7523 65.0803 43.7097 64.7823 44.503C64.4844 45.293 64.0543 45.8972 63.4919 46.3157C62.9296 46.7308 62.2534 46.9383 61.4634 46.9383ZM61.4634 45.5977C62.1596 45.5977 62.7036 45.2579 63.0952 44.5784C63.4902 43.8988 63.6877 42.9164 63.6877 41.631C63.6877 40.7774 63.5974 40.056 63.4166 39.4669C63.2392 38.8744 62.9831 38.4258 62.6484 38.1212C62.317 37.8132 61.922 37.6592 61.4634 37.6592C60.7705 37.6592 60.2265 38.0007 59.8315 38.6836C59.4365 39.3664 59.2373 40.3489 59.234 41.631C59.234 42.4879 59.3227 43.2126 59.5001 43.8051C59.6809 44.3943 59.937 44.8411 60.2684 45.1458C60.5997 45.447 60.9981 45.5977 61.4634 45.5977Z" fill="black"/>
<path d="M11.9908 15.0671V14.2859H17.4453V15.0671H15.1584V21.5586H14.2777V15.0671H11.9908ZM20.3158 21.6722C19.8233 21.6722 19.3913 21.555 19.0196 21.3207C18.6503 21.0863 18.3615 20.7584 18.1531 20.337C17.9472 19.9156 17.8442 19.4232 17.8442 18.8597C17.8442 18.2915 17.9472 17.7956 18.1531 17.3718C18.3615 16.948 18.6503 16.619 19.0196 16.3846C19.3913 16.1502 19.8233 16.033 20.3158 16.033C20.8082 16.033 21.2391 16.1502 21.6084 16.3846C21.9801 16.619 22.2689 16.948 22.4749 17.3718C22.6832 17.7956 22.7874 18.2915 22.7874 18.8597C22.7874 19.4232 22.6832 19.9156 22.4749 20.337C22.2689 20.7584 21.9801 21.0863 21.6084 21.3207C21.2391 21.555 20.8082 21.6722 20.3158 21.6722ZM20.3158 20.9194C20.6898 20.9194 20.9976 20.8235 21.2391 20.6317C21.4805 20.44 21.6593 20.1879 21.7753 19.8754C21.8913 19.5629 21.9493 19.2243 21.9493 18.8597C21.9493 18.4951 21.8913 18.1554 21.7753 17.8406C21.6593 17.5257 21.4805 17.2712 21.2391 17.0771C20.9976 16.8829 20.6898 16.7859 20.3158 16.7859C19.9417 16.7859 19.6339 16.8829 19.3925 17.0771C19.151 17.2712 18.9723 17.5257 18.8562 17.8406C18.7402 18.1554 18.6822 18.4951 18.6822 18.8597C18.6822 19.2243 18.7402 19.5629 18.8562 19.8754C18.9723 20.1879 19.151 20.44 19.3925 20.6317C19.6339 20.8235 19.9417 20.9194 20.3158 20.9194ZM26.6388 16.104V16.8143H23.8121V16.104H26.6388ZM24.636 14.7972H25.474V19.9961C25.474 20.2328 25.5084 20.4104 25.577 20.5288C25.648 20.6448 25.738 20.7229 25.8469 20.7631C25.9582 20.801 26.0754 20.82 26.1985 20.82C26.2908 20.82 26.3666 20.8152 26.4257 20.8058C26.4849 20.7939 26.5323 20.7844 26.5678 20.7773L26.7382 21.5302C26.6814 21.5515 26.6021 21.5728 26.5003 21.5941C26.3985 21.6178 26.2695 21.6296 26.1132 21.6296C25.8765 21.6296 25.6445 21.5787 25.4172 21.4769C25.1923 21.3751 25.0053 21.2201 24.8561 21.0117C24.7094 20.8034 24.636 20.5406 24.636 20.2234V14.7972ZM29.7046 21.6864C29.3589 21.6864 29.0453 21.6213 28.7635 21.4911C28.4818 21.3585 28.2581 21.168 28.0924 20.9194C27.9266 20.6684 27.8438 20.3654 27.8438 20.0103C27.8438 19.6978 27.9053 19.4445 28.0284 19.2504C28.1516 19.0539 28.3161 18.9 28.5221 18.7887C28.728 18.6774 28.9553 18.5946 29.2039 18.5401C29.4548 18.4833 29.7069 18.4383 29.9603 18.4052C30.2917 18.3626 30.5604 18.3306 30.7664 18.3093C30.9747 18.2856 31.1262 18.2466 31.2209 18.1921C31.318 18.1377 31.3665 18.043 31.3665 17.908V17.8796C31.3665 17.5292 31.2706 17.257 31.0789 17.0629C30.8895 16.8687 30.6018 16.7717 30.2159 16.7717C29.8159 16.7717 29.5022 16.8593 29.2749 17.0344C29.0476 17.2096 28.8878 17.3967 28.7955 17.5955L28 17.3114C28.1421 16.98 28.3315 16.7219 28.5682 16.5373C28.8073 16.3503 29.0677 16.2201 29.3495 16.1467C29.6336 16.0709 29.9129 16.033 30.1875 16.033C30.3627 16.033 30.564 16.0543 30.7912 16.0969C31.0209 16.1372 31.2422 16.2212 31.4553 16.3491C31.6707 16.4769 31.8495 16.6699 31.9915 16.9279C32.1336 17.186 32.2046 17.5316 32.2046 17.9648V21.5586H31.3665V20.82H31.3239C31.2671 20.9383 31.1724 21.065 31.0398 21.1999C30.9072 21.3349 30.7309 21.4497 30.5107 21.5444C30.2905 21.6391 30.0218 21.6864 29.7046 21.6864ZM29.8324 20.9336C30.1639 20.9336 30.4432 20.8685 30.6705 20.7383C30.9001 20.6081 31.073 20.44 31.189 20.234C31.3073 20.0281 31.3665 19.8114 31.3665 19.5842V18.8171C31.331 18.8597 31.2529 18.8988 31.1321 18.9343C31.0138 18.9674 30.8765 18.997 30.7202 19.0231C30.5663 19.0468 30.416 19.0681 30.2692 19.087C30.1248 19.1036 30.0076 19.1178 29.9176 19.1296C29.6998 19.158 29.4962 19.2042 29.3069 19.2681C29.1198 19.3297 28.9683 19.4232 28.8523 19.5487C28.7387 19.6718 28.6819 19.8398 28.6819 20.0529C28.6819 20.3441 28.7896 20.5643 29.005 20.7134C29.2228 20.8602 29.4986 20.9336 29.8324 20.9336ZM34.7723 14.2859V21.5586H33.9342V14.2859H34.7723ZM40.5141 14.2859V21.5586H39.6334V14.2859H40.5141ZM43.2043 18.2773V21.5586H42.3663V16.104H43.1759V16.9563H43.2469C43.3748 16.6793 43.5689 16.4568 43.8293 16.2887C44.0897 16.1183 44.4259 16.033 44.8379 16.033C45.2072 16.033 45.5303 16.1088 45.8073 16.2603C46.0843 16.4094 46.2997 16.6367 46.4536 16.9421C46.6075 17.2451 46.6844 17.6287 46.6844 18.0927V21.5586H45.8464V18.1495C45.8464 17.721 45.7351 17.3872 45.5126 17.1481C45.29 16.9066 44.9846 16.7859 44.5964 16.7859C44.3289 16.7859 44.0897 16.8439 43.879 16.9599C43.6707 17.0759 43.5062 17.2451 43.3854 17.4677C43.2647 17.6902 43.2043 17.9601 43.2043 18.2773ZM50.6318 21.6722C50.1204 21.6722 49.6801 21.5515 49.3108 21.31C48.9414 21.0685 48.6573 20.7359 48.4585 20.3121C48.2596 19.8884 48.1602 19.4042 48.1602 18.8597C48.1602 18.3058 48.262 17.8169 48.4656 17.3931C48.6716 16.967 48.958 16.6344 49.325 16.3952C49.6943 16.1538 50.1252 16.033 50.6176 16.033C51.0011 16.033 51.3467 16.104 51.6545 16.2461C51.9623 16.3881 52.2144 16.587 52.4109 16.8427C52.6074 17.0984 52.7293 17.3967 52.7767 17.7376H51.9386C51.8747 17.489 51.7326 17.2688 51.5125 17.0771C51.2947 16.8829 51.0011 16.7859 50.6318 16.7859C50.3051 16.7859 50.0186 16.8711 49.7724 17.0415C49.5286 17.2096 49.338 17.4476 49.2007 17.7553C49.0657 18.0607 48.9983 18.4194 48.9983 18.8313C48.9983 19.2527 49.0645 19.6197 49.1971 19.9322C49.3321 20.2447 49.5215 20.4873 49.7653 20.6602C50.0115 20.833 50.3003 20.9194 50.6318 20.9194C50.8496 20.9194 51.0473 20.8815 51.2248 20.8058C51.4024 20.73 51.5527 20.6211 51.6758 20.479C51.7989 20.337 51.8865 20.1665 51.9386 19.9677H52.7767C52.7293 20.2897 52.6121 20.5797 52.4251 20.8377C52.2404 21.0934 51.9954 21.297 51.69 21.4485C51.387 21.5977 51.0342 21.6722 50.6318 21.6722ZM56.4177 21.6722C55.9253 21.6722 55.4932 21.555 55.1216 21.3207C54.7522 21.0863 54.4634 20.7584 54.2551 20.337C54.0491 19.9156 53.9461 19.4232 53.9461 18.8597C53.9461 18.2915 54.0491 17.7956 54.2551 17.3718C54.4634 16.948 54.7522 16.619 55.1216 16.3846C55.4932 16.1502 55.9253 16.033 56.4177 16.033C56.9101 16.033 57.341 16.1502 57.7103 16.3846C58.082 16.619 58.3708 16.948 58.5768 17.3718C58.7851 17.7956 58.8893 18.2915 58.8893 18.8597C58.8893 19.4232 58.7851 19.9156 58.5768 20.337C58.3708 20.7584 58.082 21.0863 57.7103 21.3207C57.341 21.555 56.9101 21.6722 56.4177 21.6722ZM56.4177 20.9194C56.7918 20.9194 57.0995 20.8235 57.341 20.6317C57.5825 20.44 57.7612 20.1879 57.8772 19.8754C57.9932 19.5629 58.0512 19.2243 58.0512 18.8597C58.0512 18.4951 57.9932 18.1554 57.8772 17.8406C57.7612 17.5257 57.5825 17.2712 57.341 17.0771C57.0995 16.8829 56.7918 16.7859 56.4177 16.7859C56.0437 16.7859 55.7359 16.8829 55.4944 17.0771C55.2529 17.2712 55.0742 17.5257 54.9582 17.8406C54.8422 18.1554 54.7842 18.4951 54.7842 18.8597C54.7842 19.2243 54.8422 19.5629 54.9582 19.8754C55.0742 20.1879 55.2529 20.44 55.4944 20.6317C55.7359 20.8235 56.0437 20.9194 56.4177 20.9194ZM60.3686 21.5586V16.104H61.1783V16.9563H61.2493C61.3629 16.6651 61.5464 16.439 61.7997 16.2781C62.053 16.1147 62.3572 16.033 62.7124 16.033C63.0722 16.033 63.3717 16.1147 63.6108 16.2781C63.8523 16.439 64.0405 16.6651 64.1754 16.9563H64.2322C64.3719 16.6746 64.5814 16.4509 64.8608 16.2852C65.1402 16.1171 65.4751 16.033 65.8658 16.033C66.3535 16.033 66.7524 16.1857 67.0625 16.4911C67.3726 16.7942 67.5277 17.2665 67.5277 17.908V21.5586H66.6896V17.908C66.6896 17.5056 66.5795 17.2179 66.3594 17.0451C66.1392 16.8723 65.88 16.7859 65.5817 16.7859C65.1982 16.7859 64.901 16.9019 64.6903 17.1339C64.4796 17.3635 64.3743 17.6547 64.3743 18.0075V21.5586H63.522V17.8228C63.522 17.5127 63.4214 17.2629 63.2202 17.0735C63.0189 16.8817 62.7597 16.7859 62.4425 16.7859C62.2247 16.7859 62.0211 16.8439 61.8317 16.9599C61.6446 17.0759 61.4931 17.2369 61.3771 17.4428C61.2635 17.6464 61.2067 17.882 61.2067 18.1495V21.5586H60.3686ZM71.5469 21.6722C71.0214 21.6722 70.568 21.5562 70.1869 21.3242C69.8081 21.0898 69.5157 20.7631 69.3097 20.3441C69.1061 19.9227 69.0043 19.4326 69.0043 18.8739C69.0043 18.3152 69.1061 17.8228 69.3097 17.3967C69.5157 16.9682 69.8022 16.6344 70.1691 16.3952C70.5384 16.1538 70.9693 16.033 71.4617 16.033C71.7458 16.033 72.0264 16.0804 72.3033 16.1751C72.5803 16.2698 72.8325 16.4237 73.0597 16.6367C73.287 16.8474 73.4681 17.1268 73.6031 17.4748C73.738 17.8228 73.8055 18.2513 73.8055 18.7603V19.1154H69.6009V18.391H72.9532C72.9532 18.0832 72.8916 17.8086 72.7685 17.5671C72.6478 17.3256 72.475 17.1351 72.2501 16.9954C72.0275 16.8557 71.7647 16.7859 71.4617 16.7859C71.1279 16.7859 70.8391 16.8687 70.5952 17.0344C70.3538 17.1978 70.1679 17.4109 70.0377 17.6737C69.9075 17.9364 69.8424 18.2182 69.8424 18.5188V19.0018C69.8424 19.4137 69.9134 19.7629 70.0555 20.0494C70.1999 20.3335 70.3999 20.5501 70.6556 20.6992C70.9113 20.846 71.2084 20.9194 71.5469 20.9194C71.7671 20.9194 71.966 20.8886 72.1435 20.8271C72.3235 20.7631 72.4785 20.6684 72.6087 20.543C72.7389 20.4151 72.8396 20.2565 72.9106 20.0671L73.7202 20.2944C73.635 20.569 73.4918 20.8105 73.2906 21.0188C73.0893 21.2248 72.8407 21.3858 72.5448 21.5018C72.2489 21.6154 71.9163 21.6722 71.5469 21.6722Z" fill="#A9A7B6"/>
<path d="M107.836 46.6143V39.25" stroke="#52BD94" stroke-width="1.47286" stroke-linecap="round" stroke-linejoin="round"/>
<path d="M103.422 46.6149V34.832" stroke="#52BD94" stroke-width="1.47286" stroke-linecap="round" stroke-linejoin="round"/>
<path d="M99 46.6139V42.1953" stroke="#52BD94" stroke-width="1.47286" stroke-linecap="round" stroke-linejoin="round"/>
</svg>
