<svg width="64" height="64" viewBox="0 0 64 64" fill="none" xmlns="http://www.w3.org/2000/svg">
<path d="M43.3638 24.0004L15.0704 8.37372C14.2387 7.9013 13.3393 7.55953 12.4038 7.36039C11.6468 7.27325 10.883 7.4524 10.2437 7.86706M43.3638 24.0004L35.5371 32.0004M43.3638 24.0004L52.6971 29.1604C56.0171 31.0004 56.0171 32.9471 52.6971 34.7871L43.3638 39.9471L35.5371 31.9471L43.3638 23.9471V24.0004ZM35.5371 32.0004L10.2437 7.86706M35.5371 32.0004L10.2704 56.0937M35.5371 32.0004L43.3638 40.0004L15.1238 55.6271C13.5771 56.4804 11.4971 57.2137 10.2704 56.0937M10.2437 7.86706L35.5771 32.0004L10.2704 56.0937M10.2437 7.86706L10.1771 7.88039C9.32375 8.62706 8.84375 10.1604 8.84375 12.3871V51.6137C8.84375 53.8404 9.33708 55.3471 10.2704 56.0937" stroke="#627B8F" stroke-width="4" stroke-linecap="round" stroke-linejoin="round"/>
</svg>
