<svg width="106" height="28" viewBox="0 0 106 28" fill="none" xmlns="http://www.w3.org/2000/svg">
<g clip-path="url(#clip0_396_1930)">
<path d="M28.323 26.6701C27.12 26.6701 26.0489 26.4888 25.1096 26.1262C24.1703 25.7637 23.371 25.2611 22.7119 24.6184C22.0692 23.9757 21.5748 23.2342 21.2288 22.3937C20.8992 21.5533 20.7344 20.6552 20.7344 19.6994V19.1062C20.7344 18.1174 20.9074 17.1946 21.2535 16.3377C21.616 15.4808 22.1269 14.731 22.786 14.0883C23.4452 13.4456 24.2444 12.943 25.1837 12.5804C26.1231 12.2179 27.1695 12.0366 28.323 12.0366C29.493 12.0366 30.5394 12.2179 31.4623 12.5804C32.4016 12.943 33.2008 13.4456 33.86 14.0883C34.5192 14.731 35.0218 15.4808 35.3678 16.3377C35.7304 17.1946 35.9117 18.1174 35.9117 19.1062V19.6994C35.9117 20.6552 35.7386 21.5533 35.3925 22.3937C35.0629 23.2342 34.5686 23.9757 33.9094 24.6184C33.2668 25.2611 32.4758 25.7637 31.5364 26.1262C30.5971 26.4888 29.526 26.6701 28.323 26.6701ZM28.323 22.9128C29.0151 22.9128 29.5837 22.7645 30.0286 22.4679C30.49 22.1713 30.8361 21.7593 31.0668 21.232C31.2975 20.6881 31.4129 20.0784 31.4129 19.4028C31.4129 18.6942 31.2893 18.0762 31.042 17.5489C30.8114 17.0051 30.4653 16.5766 30.0039 16.2635C29.5425 15.9504 28.9822 15.7939 28.323 15.7939C27.6638 15.7939 27.1036 15.9504 26.6421 16.2635C26.1807 16.5766 25.8264 17.0051 25.5792 17.5489C25.3485 18.0762 25.2332 18.6942 25.2332 19.4028C25.2332 20.0784 25.3485 20.6881 25.5792 21.232C25.8099 21.7593 26.156 22.1713 26.6174 22.4679C27.0788 22.7645 27.6474 22.9128 28.323 22.9128ZM39.6187 26.1757L35.7131 12.531H40.3109L43.9443 26.1757H39.6187ZM41.0525 26.1757V22.4184H45.4277V26.1757H41.0525ZM42.6342 26.1757L45.7241 12.531H50.0254L46.6634 26.1757H42.6342ZM51.122 26.1757V12.531H54.6817V18.4635H54.6323C54.6323 16.5519 55.0278 15.0523 55.8187 13.9647C56.626 12.8771 57.7798 12.3332 59.2793 12.3332H59.8232V16.1893H58.7848C57.7798 16.1893 56.9968 16.4613 56.4365 17.0051C55.8927 17.5489 55.6209 18.3316 55.6209 19.3533V26.1757H51.122ZM66.9637 26.6701C65.8102 26.6701 64.7884 26.4723 63.8984 26.0768C63.0089 25.6813 62.2587 25.1458 61.6491 24.4701C61.0395 23.7945 60.5697 23.0364 60.2401 22.196C59.9272 21.3556 59.7706 20.4904 59.7706 19.6005V19.1062C59.7706 18.1833 59.9272 17.3017 60.2401 16.4613C60.5697 15.6043 61.0313 14.8463 61.6245 14.1871C62.2341 13.528 62.9756 13.0089 63.8491 12.6299C64.7226 12.2344 65.7112 12.0366 66.8153 12.0366C68.2819 12.0366 69.5262 12.3662 70.548 13.0254C71.5695 13.6845 72.3522 14.5579 72.896 15.6456C73.4399 16.7167 73.7119 17.8867 73.7119 19.1556V20.5893H61.6491V18.1669H71.1165L69.5591 19.2545C69.5591 18.48 69.4522 17.829 69.2376 17.3017C69.0399 16.7579 68.7353 16.3459 68.323 16.0657C67.9276 15.7856 67.4253 15.6456 66.8153 15.6456C66.2221 15.6456 65.703 15.7856 65.2582 16.0657C64.8295 16.3294 64.5002 16.7414 64.2692 17.3017C64.0386 17.8455 63.9235 18.5376 63.9235 19.3781C63.9235 20.1361 64.0304 20.7953 64.2445 21.3556C64.4587 21.8994 64.7884 22.3196 65.2335 22.6162C65.6783 22.9128 66.255 23.0611 66.9637 23.0611C67.5901 23.0611 68.1007 22.954 68.4961 22.7398C68.9083 22.5256 69.1965 22.2372 69.3614 21.8747H73.4649C73.2668 22.7975 72.8714 23.6214 72.2782 24.3465C71.7015 25.0716 70.9599 25.6401 70.0536 26.0521C69.1636 26.4641 68.1335 26.6701 66.9637 26.6701ZM75.0946 26.1757V12.531H78.6539V18.3893H78.4562C78.4562 16.9721 78.6375 15.8021 79 14.8793C79.3626 13.94 79.8982 13.2396 80.6068 12.7782C81.3316 12.3168 82.205 12.0861 83.2269 12.0861H83.4246C84.9735 12.0861 86.1684 12.6052 87.0087 13.6433C87.8657 14.665 88.294 16.2388 88.294 18.3646V26.1757H83.7954V18.241C83.7954 17.6148 83.6059 17.1039 83.2269 16.7084C82.8644 16.2965 82.3617 16.0905 81.7191 16.0905C81.0763 16.0905 80.5571 16.2965 80.1617 16.7084C79.7827 17.1039 79.5932 17.6313 79.5932 18.2905V26.1757H75.0946ZM90.3274 26.1757V12.531H93.8867V18.3893H93.689C93.689 16.9721 93.8703 15.8021 94.2328 14.8793C94.5954 13.94 95.131 13.2396 95.8396 12.7782C96.5647 12.3168 97.4378 12.0861 98.4597 12.0861H98.6574C100.207 12.0861 101.401 12.6052 102.242 13.6433C103.098 14.665 103.527 16.2388 103.527 18.3646V26.1757H99.0282V18.241C99.0282 17.6148 98.8387 17.1039 98.4597 16.7084C98.0972 16.2965 97.5945 16.0905 96.952 16.0905C96.3091 16.0905 95.7899 16.2965 95.3945 16.7084C95.0155 17.1039 94.826 17.6313 94.826 18.2905V26.1757H90.3274Z" fill="#06A77D"/>
<mask id="mask0_396_1930" style="mask-type:luminance" maskUnits="userSpaceOnUse" x="0" y="0" width="19" height="28">
<path d="M18.6217 0.67627H0V27.2104H18.6217V0.67627Z" fill="white"/>
</mask>
<g mask="url(#mask0_396_1930)">
<path d="M7.48996 1.53625C7.48996 2.59461 7.48996 3.54207 7.48996 4.48953C7.48996 6.00237 7.50086 7.51463 7.48134 9.02747C7.47615 9.4492 7.62268 9.66526 8.02027 9.82612C9.70548 10.507 11.374 11.2281 13.0523 11.9256C14.329 12.4565 15.6172 12.9598 16.8899 13.5011C17.9419 13.9486 18.5659 14.7622 18.5906 15.9131C18.6354 17.9861 18.6199 20.0609 18.6072 22.1345C18.6061 22.3224 18.4958 22.5792 18.3499 22.6861C16.3188 24.1765 14.2721 25.6469 12.2284 27.1201C12.183 27.1528 12.121 27.1631 11.9969 27.2108C11.9733 26.8649 11.9342 26.561 11.9354 26.2576C11.9451 23.9812 11.9607 21.7047 11.9785 19.4283C11.9842 18.6837 11.9607 18.6837 11.3016 18.4136C8.97348 17.4581 6.6528 16.4837 4.33041 15.5144C3.75698 15.2748 3.18758 15.0265 2.61704 14.7812C1.38286 14.2503 0.782439 13.3275 0.8014 11.9641C0.826106 10.218 0.790484 8.47128 0.815766 6.72518C0.819212 6.50568 0.980665 6.21553 1.16051 6.08224C2.73482 4.91758 4.32923 3.77937 5.92023 2.63713C6.40917 2.28607 6.90562 1.94535 7.48938 1.53625H7.48996Z" fill="#011627"/>
<path d="M0.607671 23.5044C2.87032 24.6737 5.11517 25.8338 7.39161 27.0105C8.35916 27.5109 9.71229 27.0162 9.71229 26.1624V20.8339C9.71229 20.103 8.69068 19.5968 7.73346 19.8542L0.937473 21.6797C-0.142139 21.9698 -0.338641 23.0155 0.607099 23.5044H0.607671Z" fill="#011627"/>
<path d="M12.0767 4.75289C13.9774 3.38254 15.8258 2.04955 17.7311 0.676331V6.81502C17.6248 6.80351 17.5173 6.81273 17.426 6.7788C15.6712 6.11806 13.9188 5.45156 12.0767 4.75289Z" fill="#06A77D"/>
<path d="M13.6359 10.883C14.7592 10.883 15.6699 9.97229 15.6699 8.84896C15.6699 7.72563 14.7592 6.815 13.6359 6.815C12.5126 6.815 11.6019 7.72563 11.6019 8.84896C11.6019 9.97229 12.5126 10.883 13.6359 10.883Z" fill="#06A77D"/>
</g>
</g>
<defs>
<clipPath id="clip0_396_1930">
<rect width="105.118" height="26.8158" fill="white" transform="translate(0 0.592102)"/>
</clipPath>
</defs>
</svg>
